<svg id="Actions_Minus" data-name="Actions/Minus" xmlns="http://www.w3.org/2000/svg" width="16" height="16" viewBox="0 0 16 16">
  <g id="Shape" fill="none">
    <path d="M14.4,16H1.6A1.534,1.534,0,0,1,0,14.546V2.909A1.534,1.534,0,0,1,1.6,1.454h.8V.727A.767.767,0,0,1,3.2,0,.767.767,0,0,1,4,.727v.727h8V.727a.8.8,0,0,1,1.6,0v.727h.8A1.534,1.534,0,0,1,16,2.909V14.546A1.534,1.534,0,0,1,14.4,16ZM.711,4.2V14.57a.89.89,0,0,0,.911.864H14.378a.89.89,0,0,0,.911-.864V4.2Zm12.938,9.9H11.462a.746.746,0,0,1-.729-.76V11.058a.746.746,0,0,1,.729-.76h2.186a.746.746,0,0,1,.729.76V13.34A.746.746,0,0,1,13.649,14.1Zm-4.555,0H6.906a.746.746,0,0,1-.729-.76V11.058a.746.746,0,0,1,.729-.76H9.094a.746.746,0,0,1,.729.76V13.34A.746.746,0,0,1,9.094,14.1Zm-4.556,0H2.351a.746.746,0,0,1-.729-.76V11.058a.746.746,0,0,1,.729-.76H4.538a.746.746,0,0,1,.729.76V13.34A.746.746,0,0,1,4.538,14.1Zm9.111-4.752H11.462a.746.746,0,0,1-.729-.761V6.306a.746.746,0,0,1,.729-.76h2.186a.746.746,0,0,1,.729.76V8.587A.746.746,0,0,1,13.649,9.348Zm-4.555,0H6.906a.746.746,0,0,1-.729-.761V6.306a.746.746,0,0,1,.729-.76H9.094a.746.746,0,0,1,.729.76V8.587A.746.746,0,0,1,9.094,9.348Zm-4.556,0H2.351a.746.746,0,0,1-.729-.761V6.306a.746.746,0,0,1,.729-.76H4.538a.746.746,0,0,1,.729.76V8.587A.746.746,0,0,1,4.538,9.348Z" stroke="none"/>
    <path d="M 13.64879989624023 13.60000038146973 C 13.77495956420898 13.60000038146973 13.87759971618652 13.48336029052734 13.87759971618652 13.34000015258789 L 13.87759971618652 11.05840015411377 C 13.87759971618652 10.91504001617432 13.77495956420898 10.79839992523193 13.64879989624023 10.79839992523193 L 11.46240043640137 10.79839992523193 C 11.3362398147583 10.79839992523193 11.23359966278076 10.91504001617432 11.23359966278076 11.05840015411377 L 11.23359966278076 13.34000015258789 C 11.23359966278076 13.48336029052734 11.3362398147583 13.60000038146973 11.46240043640137 13.60000038146973 L 13.64879989624023 13.60000038146973 M 9.093600273132324 13.60000038146973 C 9.219759941101074 13.60000038146973 9.322400093078613 13.48336029052734 9.322400093078613 13.34000015258789 L 9.322400093078613 11.05840015411377 C 9.322400093078613 10.91504001617432 9.219759941101074 10.79839992523193 9.093600273132324 10.79839992523193 L 6.906400203704834 10.79839992523193 C 6.780240058898926 10.79839992523193 6.677599906921387 10.91504001617432 6.677599906921387 11.05840015411377 L 6.677599906921387 13.34000015258789 C 6.677599906921387 13.48336029052734 6.780240058898926 13.60000038146973 6.906400203704834 13.60000038146973 L 9.093600273132324 13.60000038146973 M 4.537600040435791 13.60000038146973 C 4.663760185241699 13.60000038146973 4.76639986038208 13.48336029052734 4.76639986038208 13.34000015258789 L 4.76639986038208 11.05840015411377 C 4.76639986038208 10.91504001617432 4.663760185241699 10.79839992523193 4.537600040435791 10.79839992523193 L 2.351200103759766 10.79839992523193 C 2.225039958953857 10.79839992523193 2.122400045394897 10.91504001617432 2.122400045394897 11.05840015411377 L 2.122400045394897 13.34000015258789 C 2.122400045394897 13.48336029052734 2.225039958953857 13.60000038146973 2.351200103759766 13.60000038146973 L 4.537600040435791 13.60000038146973 M 13.64879989624023 8.847999572753906 C 13.77495956420898 8.847999572753906 13.87759971618652 8.731010437011719 13.87759971618652 8.587200164794922 L 13.87759971618652 6.306399822235107 C 13.87759971618652 6.163040161132812 13.77495956420898 6.04640007019043 13.64879989624023 6.04640007019043 L 11.46240043640137 6.04640007019043 C 11.3362398147583 6.04640007019043 11.23359966278076 6.163040161132812 11.23359966278076 6.306399822235107 L 11.23359966278076 8.587200164794922 C 11.23359966278076 8.731010437011719 11.3362398147583 8.847999572753906 11.46240043640137 8.847999572753906 L 13.64879989624023 8.847999572753906 M 9.093600273132324 8.847999572753906 C 9.219759941101074 8.847999572753906 9.322400093078613 8.731010437011719 9.322400093078613 8.587200164794922 L 9.322400093078613 6.306399822235107 C 9.322400093078613 6.163040161132812 9.219759941101074 6.04640007019043 9.093600273132324 6.04640007019043 L 6.906400203704834 6.04640007019043 C 6.780240058898926 6.04640007019043 6.677599906921387 6.163040161132812 6.677599906921387 6.306399822235107 L 6.677599906921387 8.587200164794922 C 6.677599906921387 8.731010437011719 6.780240058898926 8.847999572753906 6.906400203704834 8.847999572753906 L 9.093600273132324 8.847999572753906 M 4.537600040435791 8.847999572753906 C 4.663760185241699 8.847999572753906 4.76639986038208 8.731010437011719 4.76639986038208 8.587200164794922 L 4.76639986038208 6.306399822235107 C 4.76639986038208 6.163040161132812 4.663760185241699 6.04640007019043 4.537600040435791 6.04640007019043 L 2.351200103759766 6.04640007019043 C 2.225039958953857 6.04640007019043 2.122400045394897 6.163040161132812 2.122400045394897 6.306399822235107 L 2.122400045394897 8.587200164794922 C 2.122400045394897 8.731010437011719 2.225039958953857 8.847999572753906 2.351200103759766 8.847999572753906 L 4.537600040435791 8.847999572753906 M 15.5 3.702399969100952 L 15.5 2.908799886703491 C 15.5 2.382539987564087 15.00654029846191 1.954399943351746 14.39999961853027 1.954399943351746 L 13.10000038146973 1.954399943351746 L 13.10000038146973 0.7271999716758728 C 13.10000038146973 0.6040400266647339 12.96261978149414 0.5 12.80000019073486 0.5 C 12.63737964630127 0.5 12.5 0.6040400266647339 12.5 0.7271999716758728 L 12.5 1.954399943351746 L 3.5 1.954399943351746 L 3.5 0.7271999716758728 C 3.5 0.6040400266647339 3.362620115280151 0.5 3.200000047683716 0.5 C 3.03737998008728 0.5 2.900000095367432 0.6040400266647339 2.900000095367432 0.7271999716758728 L 2.900000095367432 1.954399943351746 L 1.600000023841858 1.954399943351746 C 0.9934599995613098 1.954399943351746 0.5 2.382539987564087 0.5 2.908799886703491 L 0.5 3.702399969100952 L 15.5 3.702399969100952 M 14.39999961853027 16 L 1.600000023841858 16 C 0.7177600264549255 16 0 15.34755992889404 0 14.54559993743896 L 0 2.908799886703491 C 0 2.106839895248413 0.7177600264549255 1.454399943351746 1.600000023841858 1.454399943351746 L 2.400000095367432 1.454399943351746 L 2.400000095367432 0.7271999716758728 C 2.400000095367432 0.3262200057506561 2.758879899978638 0 3.200000047683716 0 C 3.641119956970215 0 4 0.3262200057506561 4 0.7271999716758728 L 4 1.454399943351746 L 12 1.454399943351746 L 12 0.7271999716758728 C 12 0.3262200057506561 12.35888004302979 0 12.80000019073486 0 C 13.24112033843994 0 13.60000038146973 0.3262200057506561 13.60000038146973 0.7271999716758728 L 13.60000038146973 1.454399943351746 L 14.39999961853027 1.454399943351746 C 15.28223991394043 1.454399943351746 16 2.106839895248413 16 2.908799886703491 L 16 14.54559993743896 C 16 15.34755992889404 15.28223991394043 16 14.39999961853027 16 Z M 0.7111999988555908 4.202400207519531 L 0.7111999988555908 14.57040023803711 C 0.7111999988555908 15.04681015014648 1.119959950447083 15.43439960479736 1.622400045394897 15.43439960479736 L 14.37759971618652 15.43439960479736 C 14.88004016876221 15.43439960479736 15.28880023956299 15.04681015014648 15.28880023956299 14.57040023803711 L 15.28880023956299 4.202400207519531 L 0.7111999988555908 4.202400207519531 Z M 13.64879989624023 14.10000038146973 L 11.46240043640137 14.10000038146973 C 11.06054019927979 14.10000038146973 10.73359966278076 13.75907039642334 10.73359966278076 13.34000015258789 L 10.73359966278076 11.05840015411377 C 10.73359966278076 10.63932991027832 11.06054019927979 10.29839992523193 11.46240043640137 10.29839992523193 L 13.64879989624023 10.29839992523193 C 14.05066013336182 10.29839992523193 14.37759971618652 10.63932991027832 14.37759971618652 11.05840015411377 L 14.37759971618652 13.34000015258789 C 14.37759971618652 13.75907039642334 14.05066013336182 14.10000038146973 13.64879989624023 14.10000038146973 Z M 9.093600273132324 14.10000038146973 L 6.906400203704834 14.10000038146973 C 6.504539966583252 14.10000038146973 6.177599906921387 13.75907039642334 6.177599906921387 13.34000015258789 L 6.177599906921387 11.05840015411377 C 6.177599906921387 10.63932991027832 6.504539966583252 10.29839992523193 6.906400203704834 10.29839992523193 L 9.093600273132324 10.29839992523193 C 9.49545955657959 10.29839992523193 9.822400093078613 10.63932991027832 9.822400093078613 11.05840015411377 L 9.822400093078613 13.34000015258789 C 9.822400093078613 13.75907039642334 9.49545955657959 14.10000038146973 9.093600273132324 14.10000038146973 Z M 4.537600040435791 14.10000038146973 L 2.351200103759766 14.10000038146973 C 1.949339985847473 14.10000038146973 1.622400045394897 13.75907039642334 1.622400045394897 13.34000015258789 L 1.622400045394897 11.05840015411377 C 1.622400045394897 10.63932991027832 1.949339985847473 10.29839992523193 2.351200103759766 10.29839992523193 L 4.537600040435791 10.29839992523193 C 4.939459800720215 10.29839992523193 5.26639986038208 10.63932991027832 5.26639986038208 11.05840015411377 L 5.26639986038208 13.34000015258789 C 5.26639986038208 13.75907039642334 4.939459800720215 14.10000038146973 4.537600040435791 14.10000038146973 Z M 13.64879989624023 9.347999572753906 L 11.46240043640137 9.347999572753906 C 11.06054019927979 9.347999572753906 10.73359966278076 9.006699562072754 10.73359966278076 8.587200164794922 L 10.73359966278076 6.306399822235107 C 10.73359966278076 5.887330055236816 11.06054019927979 5.54640007019043 11.46240043640137 5.54640007019043 L 13.64879989624023 5.54640007019043 C 14.05066013336182 5.54640007019043 14.37759971618652 5.887330055236816 14.37759971618652 6.306399822235107 L 14.37759971618652 8.587200164794922 C 14.37759971618652 9.006699562072754 14.05066013336182 9.347999572753906 13.64879989624023 9.347999572753906 Z M 9.093600273132324 9.347999572753906 L 6.906400203704834 9.347999572753906 C 6.504539966583252 9.347999572753906 6.177599906921387 9.006699562072754 6.177599906921387 8.587200164794922 L 6.177599906921387 6.306399822235107 C 6.177599906921387 5.887330055236816 6.504539966583252 5.54640007019043 6.906400203704834 5.54640007019043 L 9.093600273132324 5.54640007019043 C 9.49545955657959 5.54640007019043 9.822400093078613 5.887330055236816 9.822400093078613 6.306399822235107 L 9.822400093078613 8.587200164794922 C 9.822400093078613 9.006699562072754 9.49545955657959 9.347999572753906 9.093600273132324 9.347999572753906 Z M 4.537600040435791 9.347999572753906 L 2.351200103759766 9.347999572753906 C 1.949339985847473 9.347999572753906 1.622400045394897 9.006699562072754 1.622400045394897 8.587200164794922 L 1.622400045394897 6.306399822235107 C 1.622400045394897 5.887330055236816 1.949339985847473 5.54640007019043 2.351200103759766 5.54640007019043 L 4.537600040435791 5.54640007019043 C 4.939459800720215 5.54640007019043 5.26639986038208 5.887330055236816 5.26639986038208 6.306399822235107 L 5.26639986038208 8.587200164794922 C 5.26639986038208 9.006699562072754 4.939459800720215 9.347999572753906 4.537600040435791 9.347999572753906 Z" stroke="none" fill="#f15a22"/>
  </g>
</svg>
